<svg viewBox="0 0 32 32" fill="none" xmlns="http://www.w3.org/2000/svg">
  <rect width="32" height="32" rx="6" fill="#14100e"/>
  <g transform="translate(0 0)">
    <path
      d="M10 6 C 10 5, 22 5, 22 6 C 26 16, 26 22, 22 26 C 22 27, 10 27, 10 26 C 6 22, 6 16, 10 6 Z"
      stroke="#e08e36"
      stroke-width="1.8"
      stroke-linecap="round"
      stroke-linejoin="round"
    />
    <path
      d="M 8 11 L 24 11 M 8 21 L 24 21"
      stroke="#e08e36"
      stroke-width="1.8"
      stroke-linecap="round"
    />
    <path
      d="M 13 11 L 13 21 M 16 11 L 16 21 M 19 11 L 19 21"
      stroke="#e08e36"
      stroke-width="1.2"
      stroke-linecap="round"
      opacity="0.5"
    />
    <path
      d="M 23 18 L 27 18 A 1 1 0 0 1 28 19 L 28 22"
      stroke="#e08e36"
      stroke-width="1.8"
      stroke-linecap="round"
      stroke-linejoin="round"
    />
    <path
      d="M 26.5 15 L 26.5 18"
      stroke="#e08e36"
      stroke-width="1.8"
      stroke-linecap="round"
      stroke-linejoin="round"
    />
  </g>
</svg>
